<svg width="152" height="1082" viewBox="0 0 152 1082" fill="none" xmlns="http://www.w3.org/2000/svg">
<path opacity="0.6" d="M141.13 1H1V1081H141.13C141.13 1081 124.284 1018.67 141.13 969.524C157.977 920.379 121.221 882.021 141.13 844.862C161.04 807.704 121.221 756.161 141.13 726.194C161.04 696.228 123.518 687.837 141.13 606.327C158.742 524.818 125.05 518.825 141.13 490.057C157.211 461.289 130.41 313.852 141.13 345.018C151.851 376.183 117.393 235.939 141.13 202.376C164.868 168.814 118.924 113.675 141.13 93.2974C163.337 72.9201 141.13 1 141.13 1Z" fill="#E8E8E8" fill-opacity="0.8" stroke="#7B95F3"/>
</svg>
